<?xml version="1.0" encoding="UTF-8"?>
<svg id="_Слой_1" xmlns="http://www.w3.org/2000/svg" version="1.1" viewBox="0 0 841.89 595.28">
  <!-- Generator: Adobe Illustrator 29.5.1, SVG Export Plug-In . SVG Version: 2.1.0 Build 141)  -->
  <defs>
    <style>
      .st0 {
        fill: #fff;
      }

      .st1 {
        fill: none;
      }

      .st2 {
        fill: #b2b2b2;
      }

      .st3 {
        opacity: .2;
      }
    </style>
  </defs>
  <path class="st0" d="M510.89,333.36l15.12-35.27h4.39l.06-2.66h-5.03l18.53-43.21h14.77l18.48,43.21h-4.62l.06,2.66h6.94l13.32,35.27h-14.55l-14.2-35.27h2.32s-.05-1.92-.05-2.64h-4.45c-2.21-5.96-10.39-27.92-10.39-27.92l-11.66,27.9h-4.27v2.66h5.76l-16.01,35.27h-14.55.05-.02ZM459.94,252.23l15.67,43.21h-4.34v2.66h5.97l6.45,15.03,7.01-15.04h2.5v-2.66h-2.7l16.42-43.21h14.96l-17.41,43.21h-5.1c-.02.83-.03,2.66-.03,2.66h6.32l-15.55,35.27h-12.98l-14.01-35.27h3.04v-2.66h-4.83l-16.24-43.21h14.87l-.03.02h0ZM614.94,252.23v43.21h-4.41v2.66h5.33l.84,21.17h42.33v14.11h-57.33v-35.27h2.64v-2.64h-4.41v-43.22h15v-.02ZM122.44,252.23l27.07,43.21h-6.49c0,.54.05,2.66.05,2.66h12.26v-2.66h-5.11l26.89-43.21h13.68v43.21h-4.39l.03,2.64h5.25v35.27h-14.11v-35.27h2.66v-2.64h-3.61l.08-16.48-11.36,16.47h-4.53v2.66h3.27l-6.95,11.31h-13.34c-2.07-3.02-7.81-11.31-7.81-11.31h2.21s-.11-2.15-.12-2.66h-3.53s-8.27-12.88-10.76-16.53v16.53h-4.42c.02.92.02,2.64.02,2.64h4.39v35.27h-14.01v-35.27h3.44s.05-1.26,0-2.64h-4.41v-43.22h13.68l-.02.03h-.01ZM285.58,252.23c12.92,0,27.34,21.5,20.28,37.91-1.14,2.66-3.67,5.3-3.67,5.3h-3.82v2.64h2.49c-1.96,2.33-5.36,4.14-8.6,5.82l16.7,29.45h-16.76l-15.43-28.23h-15.43v-7.06h29.1v-2.64h-29.98v-.87h20.72c.32,0,4.48-1.5,5.2-1.86,9.99-4.79,9.99-20.6,0-25.39-.72-.35-3.62-1.86-5.2-1.86h-27.78v29.98h-4.34v2.64h5.2v35.27h-14.09v-35.27h2.81v-2.66h-3.68v-43.21h46.29l-.02.03h.01ZM313.36,333.36l15.12-35.27h3.41v-2.64h-4.05l18.69-43.27,15.39.06,17.99,43.21h-4.85v2.66h6.95l14.24,35.27h-14.55l-15.62-35.27h2.04s0-1.03-.08-2.64h-3.04l-10.21-25.57s-10.97,23.39-11.56,25.46l-5,.09v2.66h6.4l-15.84,35.27h-15.44v-.02h0ZM222.52,252.23v43.21h-4.41v2.64h5.3v35.27h-14.12v-35.27h2.64v-2.64h-3.53v-43.21h14.12ZM419.17,148.17h3.15v298.94h-3.15V148.17ZM683.73,319.27v-21.2h39.69v-.89h-43.05l.03-1.78h42.13v-9.7l-38.8-.09v-20.2h47.63v-13.23h-60.84v43.21c.91.11,3.85,0,3.85,0l.05,2.66h-3.9v35.27h62.61v-14.11l-49.38.03-.02.03h0Z"/>
  <g class="st3">
    <rect class="st2" x="429.19" y="210.81" width="7.83" height=".95"/>
    <rect class="st2" x="429.19" y="214.37" width="7.83" height=".95"/>
    <rect class="st2" x="429.19" y="217.94" width="18.39" height=".95"/>
    <rect class="st2" x="429.19" y="221.5" width="18.39" height=".95"/>
    <rect class="st2" x="429.19" y="225.08" width="18.39" height=".95"/>
    <rect class="st2" x="429.19" y="228.64" width="18.39" height=".95"/>
    <rect class="st2" x="429.19" y="232.22" width="18.39" height=".95"/>
    <rect class="st2" x="429.19" y="239.34" width="18.39" height=".95"/>
    <rect class="st2" x="429.19" y="242.91" width="18.39" height=".95"/>
    <rect class="st2" x="475.16" y="242.91" width="6.95" height=".95"/>
    <rect class="st2" x="430.07" y="267.89" width="6.95" height=".95"/>
    <rect class="st2" x="439.4" y="289.3" width="6.95" height=".95"/>
    <rect class="st2" x="429.19" y="246.48" width="148.94" height=".95"/>
    <rect class="st2" x="503.66" y="242.91" width="74.47" height=".95"/>
    <rect class="st2" x="503.66" y="239.35" width="74.47" height=".95"/>
    <rect class="st2" x="506.7" y="235.78" width="71.43" height=".95"/>
    <rect class="st2" x="515.07" y="232.22" width="63.07" height=".95"/>
    <rect class="st2" x="520.03" y="228.64" width="58.09" height=".95"/>
    <rect class="st2" x="429.19" y="250.05" width="148.94" height=".95"/>
    <rect class="st2" x="429.19" y="253.61" width="148.94" height=".95"/>
    <rect class="st2" x="429.19" y="257.19" width="148.94" height=".95"/>
    <rect class="st2" x="429.19" y="260.75" width="148.94" height=".95"/>
    <rect class="st2" x="429.19" y="264.33" width="148.94" height=".95"/>
    <rect class="st2" x="453.35" y="267.89" width="124.78" height=".95"/>
    <rect class="st2" x="453.35" y="271.45" width="124.78" height=".95"/>
    <rect class="st2" x="453.35" y="275.02" width="124.78" height=".95"/>
    <rect class="st2" x="447.03" y="278.58" width="131.11" height=".95"/>
    <rect class="st2" x="447.03" y="282.16" width="133.72" height=".95"/>
    <rect class="st2" x="454.21" y="285.72" width="125.34" height=".95"/>
    <rect class="st2" x="457.96" y="289.3" width="120.16" height=".95"/>
    <rect class="st2" x="430.9" y="235.78" width="18.39" height=".95"/>
    <line class="st1" x1="578.13" y1="242.15" x2="503.66" y2="242.15"/>
  </g>
</svg>