<?xml version="1.0" encoding="UTF-8"?>
<svg id="_Слой_1" xmlns="http://www.w3.org/2000/svg" version="1.1" viewBox="0 0 841.89 595.28">
  <!-- Generator: Adobe Illustrator 29.5.1, SVG Export Plug-In . SVG Version: 2.1.0 Build 141)  -->
  <defs>
    <style>
      .st0 {
        fill: #fff;
      }
    </style>
  </defs>
  <path class="st0" d="M586.81,276.1h19.1v1.81h-19.1v-1.81ZM586.81,279.02h19.1v1.64h-19.1v-1.64ZM586.81,281.88h19.1v1.43h-19.1v-1.43ZM586.81,284.22h19.1v1.01h-19.1v-1.01ZM586.81,286.63h19.1v2.26h-19.1v-2.26ZM586.81,290.48h19.1v1.83h-19.1v-1.83ZM586.81,293.65h19.1v1.52h-19.1v-1.52ZM586.81,296.51h19.1v2.21h-19.1v-2.21ZM586.81,300.67h19.1v2.53h-19.1v-2.53ZM586.81,305.33h19.1v1.86h-19.1v-1.86ZM586.81,309.19h19.1v2.93h-19.1v-2.93ZM586.81,314.21h19.1v2.45h-19.1v-2.45ZM586.81,318.38h19.1v1.08h-19.1v-1.08ZM586.81,320.66h19.1v1.52h-19.1v-1.52ZM586.81,323.71h19.1v1.52h-19.1v-1.52ZM586.81,326.92h19.1v2.32h-19.1v-2.32ZM586.81,330.51h19.1v.89h-19.1v-.89ZM586.81,332.4h19.1v.63h-19.1v-.63ZM232.01,114.47h1.88v13.81h-1.88v-13.81ZM236.42,114.47h2.57v13.81h-2.57v-13.81ZM241.31,114.47h2.57v13.81h-2.57v-13.81ZM246.28,114.47h1.29v13.81h-1.29v-13.81ZM378.89,137.05h1.18v22.24h-1.18v-22.24ZM382.73,137.05h3.67v22.24h-3.67v-22.24ZM388.97,137.05h3.35v22.24h-3.35v-22.24ZM395.48,137.05h2.55v22.24h-2.55v-22.24ZM401.26,137.05h2.87v22.24h-2.87v-22.24ZM406.97,137.05h2.87v22.24h-2.87v-22.24ZM412.08,137.05h3.67v22.24h-3.67v-22.24ZM418.72,137.05h3.02v22.24h-3.02v-22.24ZM424.56,137.05h2.91v22.24h-2.91v-22.24ZM430.13,137.05h2.85v22.24h-2.85v-22.24ZM435.76,137.05h3.75v22.24h-3.75v-22.24ZM441.57,137.05h2.89v22.24h-2.89v-22.24ZM447.84,137.05h2.89v22.24h-2.89v-22.24ZM465.48,455.46h.97v28.53h-.97v-28.53ZM468.12,455.46h.97v28.53h-.97v-28.53ZM470.61,455.46h.97v28.53h-.97v-28.53ZM472.68,455.46h.97v28.53h-.97v-28.53ZM474.8,455.46h.97v28.53h-.97v-28.53ZM477.17,455.46h.97v28.53h-.97v-28.53ZM479.46,455.46h.97v28.53h-.97v-28.53ZM481.87,455.46h.97v28.53h-.97v-28.53ZM484.46,455.46h2.07v28.53h-2.07v-28.53ZM489.04,455.46h2.07v28.53h-2.07v-28.53ZM492.6,455.46h.61v28.53h-.61v-28.53ZM495.05,455.46h.78v28.53h-.78v-28.53ZM496.92,455.46h.78v28.53h-.78v-28.53ZM499.24,455.46h.78v28.53h-.78v-28.53ZM501.6,455.46h.78v28.53h-.78v-28.53ZM503.44,455.46h.78v28.53h-.78v-28.53ZM506.18,455.46h.78v28.53h-.78v-28.53ZM508.08,455.46h.78v28.53h-.78v-28.53ZM510.46,455.46h.78v28.53h-.78v-28.53ZM512.82,455.46h.78v28.53h-.78v-28.53ZM515.48,455.46h.4v28.53h-.4v-28.53ZM453.64,137.05h2.89v22.24h-2.89v-22.24ZM459.31,137.05h1.24v22.24h-1.24v-22.24ZM272.34,266.13h5.8l-.02.97h-5.8l.02-.97ZM241.45,266.13h11.86v.97h-11.86v-.97ZM222.16,266.13h12.51v.97h-12.51v-.97ZM145.73,266.13h32.81v.97l-32.81-.02v-.95ZM86.39,266.13h25.56v.97l-25.56-.02v-.95ZM118.7,266.13h5.79v.95h-5.79v-.95ZM130.29,266.13h6.83v.95h-6.83v-.95ZM284.87,266.13h4.83v.97h-4.83v-.97ZM298.39,266.13h3.87v.97h-3.88v-.97ZM591.74,163.36h0l-.48-.89.51-.13.59,1.1v.59h-5.04v-.67h4.42ZM592.36,169.12h-.46l-4.58-2.19v-.7l4.45,2.19h0v-2.47h.57v3.18h.02ZM587.32,171.94h1.37v-2.34h.46l3.21,2.24v.74h-3.14v.7h-.53v-.7h-1.37v-.65h0ZM589.23,171.94h1.67c.27,0,.53,0,.8.02h0c-.3-.17-.51-.3-.74-.44l-1.71-1.24h0v1.65h-.02,0ZM587.8,174.22c0,.15,0,.32.02.55.06.4.21.76.49,1.05.3.34.74.57,1.35.67h0c-.34-.3-.55-.7-.55-1.22,0-.91.68-1.48,1.54-1.48.95,0,1.79.68,1.79,1.71s-.84,1.67-2.13,1.67c-1.1,0-1.88-.38-2.36-.87-.38-.38-.61-.91-.67-1.46-.04-.25-.04-.46-.04-.63h.55v.02h.01ZM590.71,174.47c-.63,0-1.07.38-1.07.97,0,.46.23.82.53.99.06.04.13.06.25.06.86,0,1.52-.32,1.52-1.03,0-.59-.51-.99-1.22-.99h-.02,0ZM588.1,177.97c-.13.19-.32.65-.32,1.12,0,.87.55,1.14.97,1.14.7,0,1.01-.65,1.01-1.29v-.38h.51v.38c0,.49.27,1.12.86,1.12.4,0,.76-.25.76-.87,0-.4-.17-.8-.34-1.01l.49-.17c.19.27.38.78.38,1.31,0,.99-.59,1.45-1.2,1.45-.51,0-.97-.3-1.18-.93h0c-.13.63-.59,1.12-1.29,1.12-.8,0-1.5-.63-1.5-1.85,0-.57.17-1.07.34-1.31l.53.19-.02-.02ZM591.89,184.64c0-.13,0-.32-.04-.51-.17-1.07-.97-1.64-1.79-1.75h0c.32.27.59.68.59,1.24,0,.89-.65,1.52-1.64,1.52-.91,0-1.77-.63-1.77-1.67s.84-1.79,2.15-1.79c.99,0,1.77.36,2.26.86.42.42.67.97.74,1.62.04.21.04.38.04.49h-.55,0ZM588.98,184.45c.72,0,1.16-.42,1.16-1.05,0-.42-.25-.8-.63-.97-.08-.04-.17-.08-.3-.08-.84,0-1.45.4-1.45,1.1,0,.59.49.99,1.22.99h0ZM587.32,185.75h.42l.51.53c1.22,1.29,1.88,1.86,2.64,1.88.51,0,.99-.25.99-1.01,0-.46-.23-.84-.42-1.07l.48-.21c.3.34.51.84.51,1.43,0,1.08-.74,1.54-1.46,1.54-.93,0-1.67-.67-2.7-1.73l-.38-.4h0v2.26h-.57v-3.21l-.02-.02h0ZM589.89,193.07c-1.71,0-2.66-.63-2.66-1.75,0-.99.91-1.65,2.59-1.67,1.69,0,2.62.72,2.62,1.75s-.95,1.67-2.55,1.67h0ZM589.82,190.35c-1.31,0-2.05.4-2.05,1.03,0,.7.82,1.03,2.09,1.03s2.05-.32,2.05-1.03c0-.59-.72-1.03-2.09-1.03ZM588.6,193.64c.63,0,1.08.38,1.35,1.01h.02c.27-.57.7-.8,1.12-.8.8,0,1.35.67,1.35,1.56,0,.97-.61,1.46-1.24,1.46-.42,0-.87-.21-1.18-.84h-.02c-.25.63-.68,1.01-1.29,1.01-.87,0-1.46-.76-1.46-1.71,0-1.05.63-1.69,1.37-1.69h-.02,0ZM588.64,196.36c.61,0,.91-.42,1.1-1.1-.17-.59-.55-.91-1.05-.91-.51-.02-.95.36-.95,1.01s.38,1.01.89,1.01h.01ZM591.17,194.48c-.49,0-.78.38-.93.97.15.44.46.76.91.76.4,0,.82-.25.82-.86,0-.57-.38-.87-.8-.87h0ZM588.6,197.63c.63,0,1.08.38,1.35,1.01h.02c.27-.57.7-.8,1.12-.8.8,0,1.35.67,1.35,1.56,0,.97-.61,1.46-1.24,1.46-.42,0-.87-.21-1.18-.84h-.02c-.25.63-.68,1.01-1.29,1.01-.87,0-1.46-.76-1.46-1.71,0-1.05.63-1.69,1.37-1.69h-.02,0ZM588.64,200.33c.61,0,.91-.42,1.1-1.1-.17-.59-.55-.91-1.05-.91-.51-.02-.95.36-.95,1.01s.38,1.01.89,1.01h.01ZM591.17,198.47c-.49,0-.78.38-.93.97.15.44.46.76.91.76.4,0,.82-.25.82-.86,0-.57-.38-.87-.8-.87h0ZM587.8,202.07c0,.15,0,.32.02.55.06.4.21.76.49,1.05.3.34.74.57,1.35.67h0c-.34-.3-.55-.7-.55-1.22,0-.91.68-1.48,1.54-1.48.95,0,1.79.68,1.79,1.71s-.84,1.67-2.13,1.67c-1.1,0-1.88-.38-2.36-.87-.38-.38-.61-.91-.67-1.46-.04-.25-.04-.46-.04-.63h.55v.02h.01ZM590.71,202.31c-.63,0-1.07.38-1.07.97,0,.46.23.82.53.99.06.04.13.06.25.06.86,0,1.52-.32,1.52-1.03,0-.59-.51-.99-1.22-.99h-.02,0ZM591.79,208.65v-1.92l-1.29-.19c0,.11.04.23.04.42,0,.38-.1.78-.27,1.08-.23.4-.67.72-1.29.72-.99,0-1.71-.78-1.71-1.88,0-.55.15-1.01.3-1.26l.51.17c-.11.21-.29.63-.29,1.08,0,.65.42,1.2,1.08,1.2s1.12-.44,1.12-1.45c0-.29-.04-.51-.06-.7l2.42.32v2.42h-.57v-.02h.01ZM588.1,209.79c-.13.19-.32.65-.32,1.12,0,.87.55,1.14.97,1.14.7,0,1.01-.65,1.01-1.29v-.38h.51v.38c0,.49.27,1.12.86,1.12.4,0,.76-.25.76-.87,0-.4-.17-.8-.34-1.01l.49-.17c.19.27.38.78.38,1.31,0,.99-.59,1.45-1.2,1.45-.51,0-.97-.3-1.18-.93h0c-.13.63-.59,1.12-1.29,1.12-.8,0-1.5-.63-1.5-1.85,0-.57.17-1.07.34-1.31l.53.19-.02-.02ZM587.8,213.99c0,.15,0,.32.02.55.06.4.21.76.49,1.05.3.34.74.57,1.35.67h0c-.34-.3-.55-.7-.55-1.22,0-.91.68-1.48,1.54-1.48.95,0,1.79.68,1.79,1.71s-.84,1.67-2.13,1.67c-1.1,0-1.88-.38-2.36-.87-.38-.38-.61-.91-.67-1.46-.04-.25-.04-.46-.04-.63h.55v.02h.01ZM590.71,214.24c-.63,0-1.07.38-1.07.97,0,.46.23.82.53.99.06.04.13.06.25.06.86,0,1.52-.32,1.52-1.03,0-.59-.51-.99-1.22-.99h-.02,0ZM587.8,217.97c0,.15,0,.32.02.55.06.4.21.76.49,1.05.3.34.74.57,1.35.67h0c-.34-.3-.55-.7-.55-1.22,0-.91.68-1.48,1.54-1.48.95,0,1.79.68,1.79,1.71s-.84,1.67-2.13,1.67c-1.1,0-1.88-.38-2.36-.87-.38-.38-.61-.91-.67-1.46-.04-.25-.04-.46-.04-.63h.55v.02h.01ZM590.71,218.21c-.63,0-1.07.38-1.07.97,0,.46.23.82.53.99.06.04.13.06.25.06.86,0,1.52-.32,1.52-1.03,0-.59-.51-.99-1.22-.99h-.02,0ZM587.32,221.56h.42l.51.53c1.22,1.29,1.88,1.86,2.64,1.88.51,0,.99-.25.99-1.01,0-.46-.23-.84-.42-1.07l.48-.21c.3.34.51.84.51,1.43,0,1.08-.74,1.54-1.46,1.54-.93,0-1.67-.67-2.7-1.73l-.38-.4h0v2.26h-.57v-3.21l-.02-.02h0ZM592.36,228.81h-.46l-4.58-2.19v-.7l4.45,2.19h0v-2.47h.57v3.18h.02ZM591.89,232.39c0-.13,0-.32-.04-.51-.17-1.07-.97-1.64-1.79-1.75h0c.32.27.59.68.59,1.24,0,.89-.65,1.52-1.64,1.52-.91,0-1.77-.63-1.77-1.67s.84-1.79,2.15-1.79c.99,0,1.77.36,2.26.86.42.42.67.97.74,1.62.04.21.04.38.04.49h-.55,0ZM588.98,232.19c.72,0,1.16-.42,1.16-1.05,0-.42-.25-.8-.63-.97-.08-.04-.17-.08-.3-.08-.84,0-1.45.4-1.45,1.1,0,.59.49.99,1.22.99h0ZM587.32,235.6h1.37v-2.34h.46l3.21,2.24v.74h-3.14v.7h-.53v-.7h-1.37v-.65h0ZM589.23,235.6h1.67c.27,0,.53,0,.8.02h0c-.3-.17-.51-.3-.74-.44l-1.71-1.24h0v1.65h-.02,0ZM589.89,240.81c-1.71,0-2.66-.63-2.66-1.75,0-.99.91-1.65,2.59-1.67,1.69,0,2.62.72,2.62,1.75s-.95,1.67-2.55,1.67h0ZM589.82,238.09c-1.31,0-2.05.4-2.05,1.03,0,.7.82,1.03,2.09,1.03s2.05-.32,2.05-1.03c0-.59-.72-1.03-2.09-1.03ZM591.74,242.92h0l-.48-.89.51-.13.59,1.1v.59h-5.04v-.67h4.42ZM588.1,245.59c-.13.19-.32.65-.32,1.12,0,.87.55,1.14.97,1.14.7,0,1.01-.65,1.01-1.29v-.38h.51v.38c0,.49.27,1.12.86,1.12.4,0,.76-.25.76-.87,0-.4-.17-.8-.34-1.01l.49-.17c.19.27.38.78.38,1.31,0,.99-.59,1.45-1.2,1.45-.51,0-.97-.3-1.18-.93h0c-.13.63-.59,1.12-1.29,1.12-.8,0-1.5-.63-1.5-1.85,0-.57.17-1.07.34-1.31l.53.19-.02-.02ZM588.1,249.56c-.13.19-.32.65-.32,1.12,0,.87.55,1.14.97,1.14.7,0,1.01-.65,1.01-1.29v-.38h.51v.38c0,.49.27,1.12.86,1.12.4,0,.76-.25.76-.87,0-.4-.17-.8-.34-1.01l.49-.17c.19.27.38.78.38,1.31,0,.99-.59,1.45-1.2,1.45-.51,0-.97-.3-1.18-.93h0c-.13.63-.59,1.12-1.29,1.12-.8,0-1.5-.63-1.5-1.85,0-.57.17-1.07.34-1.31l.53.19-.02-.02ZM243.71,304.3c0-.13,0-.32-.04-.51-.17-1.07-.97-1.64-1.79-1.75h0c.32.27.59.68.59,1.24,0,.89-.65,1.52-1.64,1.52-.91,0-1.77-.63-1.77-1.67s.84-1.79,2.15-1.79c.99,0,1.77.36,2.26.86.42.42.67.97.74,1.62.04.21.04.38.04.49h-.55.01ZM240.8,304.11c.72,0,1.16-.42,1.16-1.05,0-.42-.25-.8-.63-.97-.08-.04-.17-.08-.3-.08-.84,0-1.45.4-1.45,1.1,0,.59.49.99,1.22.99h0ZM239.14,307.52h1.37v-2.34h.46l3.21,2.24v.74h-3.14v.7h-.53v-.7h-1.37v-.65h0ZM241.05,307.52h1.67c.27,0,.53,0,.8.02h0c-.3-.17-.51-.3-.74-.44l-1.71-1.24h0v1.65h-.02,0ZM239.14,309.38h.42l.51.53c1.22,1.29,1.88,1.86,2.64,1.88.51,0,.99-.25.99-1.01,0-.46-.23-.84-.42-1.07l.48-.21c.3.34.51.84.51,1.43,0,1.08-.74,1.54-1.46,1.54-.93,0-1.67-.67-2.7-1.73l-.38-.4h0v2.26h-.57v-3.21l-.02-.02h0ZM239.62,313.76c0,.15,0,.32.02.55.06.4.21.76.49,1.05.3.34.74.57,1.35.67h0c-.34-.3-.55-.7-.55-1.22,0-.91.68-1.48,1.54-1.48.95,0,1.79.68,1.79,1.71s-.84,1.67-2.13,1.67c-1.1,0-1.88-.38-2.36-.87-.38-.38-.61-.91-.67-1.46-.04-.25-.04-.46-.04-.63h.55v.02h0ZM242.53,314c-.63,0-1.07.38-1.07.97,0,.46.23.82.53.99.06.04.13.06.25.06.86,0,1.52-.32,1.52-1.03,0-.59-.51-.99-1.22-.99h-.02.01ZM244.18,320.62h-.46l-4.58-2.19v-.7l4.45,2.19h0v-2.47h.57v3.18h.02ZM243.71,324.2c0-.13,0-.32-.04-.51-.17-1.07-.97-1.64-1.79-1.75h0c.32.27.59.68.59,1.24,0,.89-.65,1.52-1.64,1.52-.91,0-1.77-.63-1.77-1.67s.84-1.79,2.15-1.79c.99,0,1.77.36,2.26.86.42.42.67.97.74,1.62.04.21.04.38.04.49h-.55.01ZM240.8,324.01c.72,0,1.16-.42,1.16-1.05,0-.42-.25-.8-.63-.97-.08-.04-.17-.08-.3-.08-.84,0-1.45.4-1.45,1.1,0,.59.49.99,1.22.99h0ZM243.61,328.31v-1.92l-1.29-.19c0,.11.04.23.04.42,0,.38-.1.78-.27,1.08-.23.4-.67.72-1.29.72-.99,0-1.71-.78-1.71-1.88,0-.55.15-1.01.3-1.26l.51.17c-.11.21-.29.63-.29,1.08,0,.65.42,1.2,1.08,1.2s1.12-.44,1.12-1.45c0-.29-.04-.51-.06-.7l2.42.32v2.42h-.57v-.02h.01ZM243.54,330.76h0l-.48-.89.51-.13.59,1.1v.59h-5.04v-.67h4.42ZM240.42,333.2c.63,0,1.08.38,1.35,1.01h.02c.27-.57.7-.8,1.12-.8.8,0,1.35.67,1.35,1.56,0,.97-.61,1.46-1.24,1.46-.42,0-.87-.21-1.18-.84h-.02c-.25.63-.68,1.01-1.29,1.01-.87,0-1.46-.76-1.46-1.71,0-1.05.63-1.69,1.37-1.69h-.02ZM240.46,335.92c.61,0,.91-.42,1.1-1.1-.17-.59-.55-.91-1.05-.91-.51-.02-.95.36-.95,1.01s.38,1.01.89,1.01h0ZM242.97,334.03c-.49,0-.78.38-.93.97.15.44.46.76.91.76.4,0,.82-.25.82-.86,0-.57-.38-.87-.8-.87h0ZM243.71,340.12c0-.13,0-.32-.04-.51-.17-1.07-.97-1.64-1.79-1.75h0c.32.27.59.68.59,1.24,0,.89-.65,1.52-1.64,1.52-.91,0-1.77-.63-1.77-1.67s.84-1.79,2.15-1.79c.99,0,1.77.36,2.26.86.42.42.67.97.74,1.62.04.21.04.38.04.49h-.55.01ZM240.8,339.93c.72,0,1.16-.42,1.16-1.05,0-.42-.25-.8-.63-.97-.08-.04-.17-.08-.3-.08-.84,0-1.45.4-1.45,1.1,0,.59.49.99,1.22.99h0ZM243.61,344.23v-1.92l-1.29-.19c0,.11.04.23.04.42,0,.38-.1.78-.27,1.08-.23.4-.67.72-1.29.72-.99,0-1.71-.78-1.71-1.88,0-.55.15-1.01.3-1.26l.51.17c-.11.21-.29.63-.29,1.08,0,.65.42,1.2,1.08,1.2s1.12-.44,1.12-1.45c0-.29-.04-.51-.06-.7l2.42.32v2.42h-.57v-.02h.01ZM239.62,345.6c0,.15,0,.32.02.55.06.4.21.76.49,1.05.3.34.74.57,1.35.67h0c-.34-.3-.55-.7-.55-1.22,0-.91.68-1.48,1.54-1.48.95,0,1.79.68,1.79,1.71s-.84,1.67-2.13,1.67c-1.1,0-1.88-.38-2.36-.87-.38-.38-.61-.91-.67-1.46-.04-.25-.04-.46-.04-.63h.55v.02h0ZM242.53,345.85c-.63,0-1.07.38-1.07.97,0,.46.23.82.53.99.06.04.13.06.25.06.86,0,1.52-.32,1.52-1.03,0-.59-.51-.99-1.22-.99h-.02.01ZM247.11,370.31l.51-.8,13.83,8.82-.51.8-13.83-8.82ZM262.95,380.41l.51-.8,4.71,3.01-.51.8-4.71-3.01ZM269.69,384.72l.51-.8,4.71,3.01-.51.8-4.71-3.01ZM277.01,389.38l.51-.8,4.71,3.01-.51.8-4.71-3.01ZM284.01,393.84l.51-.8,4.71,3.01-.51.8-4.71-3.01ZM290.92,398.26l.51-.8,4.71,3.01-.51.8-4.71-3.01ZM297.48,402.42l.51-.8,3.88,2.47-.51.8-3.88-2.47ZM304.47,406.9l.51-.8,4.62,2.95-.51.8-4.62-2.95ZM311.24,411.21l.51-.8,4.62,2.95-.51.8-4.62-2.95ZM318.05,415.55l.51-.8,4.62,2.95-.51.8-4.62-2.95ZM324.8,419.85l.51-.8,21.7,13.84-.51.8-21.7-13.84ZM489.93,432.96l13.8-8.86.51.8-13.8,8.86-.51-.8ZM505.74,422.8l4.71-3.02.51.8-4.71,3.02-.51-.8ZM512.49,418.48l4.71-3.02.51.8-4.71,3.02-.51-.8ZM519.78,413.8l4.71-3.02.51.8-4.71,3.02-.51-.8ZM526.79,409.32l4.71-3.02.51.8-4.71,3.02-.51-.8ZM533.72,404.88l4.71-3.02.51.8-4.71,3.02-.51-.8ZM540.21,400.7l3.87-2.48.51.8-3.87,2.48-.51-.8ZM547.21,396.22l4.61-2.96.51.8-4.61,2.96-.51-.8ZM553.98,391.89l4.61-2.96.51.8-4.61,2.96-.51-.8ZM560.76,387.5l4.61-2.96.51.8-4.61,2.96-.51-.8ZM567.5,383.19l21.67-13.9.51.8-21.67,13.9-.51-.8ZM343.63,122.22l67.73,143.91h-41.87l-48.92-96.89h-29.63v32.45c0,3.4,32.09,63.15,32.91,64.39l-9.4.17v129.69l-55.5-35.28V122.18h84.66l.02.04ZM333.28,287.77l84.62,161.89s58.05-114.66,82.82-161.89v61.61l-82.82,154.3-84.62-155.23v-60.68h0ZM353.97,266.15h13.16v.93h-13.16v-.93ZM338.9,267.1v-.95s8.46,0,8.46,0v.95s-8.46,0-8.46,0ZM491.31,122.22l-67.73,143.91h32.93v.93h-29.63l-9.42,17.88s-6.52-12.38-9.4-17.88h-38.1l47.97,95.94,95.01-193.77h31.04v31.52l-32.93,65.38h23.51v.93h-14.11v128.94l55.5-35.34V122.2h-84.66l.02.02h0ZM548.67,267.08h-5.63v-.91h5.63v.91ZM560.9,267.08h-5.63v-.91h5.63v.91Z"/>
</svg>